<svg xmlns="http://www.w3.org/2000/svg" viewBox="0 0 1337.18 273.84" fill-rule="evenodd" role="img" aria-label="atra.dent">
  <title>atra.dent</title>
  <g id="mark">
    <path fill="#264892" d="M 60.42 0.51 C 44.59 2.17 30.65 8.95 20.13 20.1 C 9.08 31.79 1.82 49.1 0.28 67.38 C 0 70.71 0.01 81.12 0.3 83.62 C 0.42 84.73 0.7 87.59 0.91 89.99 C 1.12 92.38 1.4 94.75 1.53 95.24 C 1.66 95.72 1.83 96.8 1.91 97.62 C 2.18 100.31 3.63 108.96 4.57 113.5 C 5.44 117.69 6.06 120.57 6.56 122.75 C 9.56 135.74 10.06 137.83 10.54 139.5 C 10.8 140.39 11.31 142.19 11.67 143.5 C 12.04 144.81 12.48 146.32 12.66 146.88 C 12.85 147.43 13.25 148.77 13.55 149.88 C 14.22 152.31 17.93 164.58 18.3 165.62 C 18.45 166.04 19.46 169.02 20.54 172.25 C 23.38 180.68 26.4 189.36 27.16 191.25 C 27.52 192.14 28.33 194.22 28.95 195.88 C 30 198.63 31.98 203.64 34.66 210.25 C 38.13 218.84 44.95 233.39 49.45 241.85 C 60.88 263.26 68.59 271.22 77.92 271.25 C 85.07 271.26 90.87 266.18 96.4 255.07 C 97.44 252.98 98.29 251.21 98.29 251.13 C 98.29 251.06 98.81 249.9 99.44 248.57 C 100.08 247.22 100.77 245.67 100.98 245.12 C 101.2 244.58 101.46 244.01 101.57 243.87 C 101.67 243.72 102.21 242.49 102.76 241.12 C 104.83 235.89 107.33 229.81 108.03 228.25 C 108.44 227.36 109.23 225.56 109.79 224.25 C 113.2 216.31 117.63 207.88 120.16 204.54 C 120.71 203.8 121.46 202.77 121.82 202.24 C 125.09 197.36 131.16 192.37 135.93 190.62 C 145.3 187.19 152.66 188.69 161.17 195.78 C 166.91 200.57 171.95 208.31 177.38 220.69 C 180.39 227.52 182.23 231.86 183.15 234.25 C 184.02 236.51 184.92 238.69 185.69 240.41 C 185.88 240.85 186.04 241.27 186.04 241.36 C 186.04 241.45 186.42 242.33 186.89 243.33 C 187.35 244.32 188.04 245.91 188.42 246.88 C 191.12 253.64 195.87 261.91 199 265.3 C 204.38 271.12 211.65 272.83 217.81 269.74 C 222.94 267.16 228.8 260.08 235.7 248.1 C 238.34 243.52 246.79 226.88 249.15 221.62 C 251.11 217.25 255.1 207.95 255.74 206.25 C 256.54 204.13 258.62 198.88 259.65 196.38 C 260.16 195.14 261.31 192.15 262.19 189.75 C 263.08 187.34 264.3 184.08 264.9 182.5 C 267.04 176.87 271.76 162.63 273.93 155.25 C 274.44 153.53 275.24 150.83 275.71 149.25 C 277.19 144.31 280.47 132.26 281.15 129.25 C 281.51 127.67 282.03 125.47 282.29 124.38 C 282.56 123.27 283.06 121.08 283.41 119.5 C 283.76 117.92 284.22 115.89 284.42 115 C 285.02 112.34 285.54 109.53 285.93 106.88 C 286.13 105.5 286.35 104.21 286.41 104 C 286.77 102.85 287.78 95.87 288.04 92.75 C 288.21 90.75 288.4 89.04 288.46 88.94 C 288.51 88.84 288.73 85.98 288.93 82.57 C 289.34 75.74 289.13 68.23 288.4 63.41 C 287.71 58.76 286.8 53.9 286.29 52 C 285.04 47.44 284.77 46.53 284.2 44.92 C 283.86 43.99 283.48 43.09 283.35 42.92 C 283.22 42.76 282.8 41.84 282.42 40.88 C 282.04 39.91 281.34 38.34 280.86 37.38 C 269.34 14.23 248.61 0.83 223.54 0.32 C 207.25 0 196.15 2.88 171.67 13.76 C 161.72 18.18 152.51 20.36 143.92 20.34 C 135.46 20.31 124.52 17.53 114.79 12.95 C 99.54 5.76 89.44 2.5 76.54 0.61 C 74 0.24 63.62 0.17 60.42 0.51 Z"/>
    <path fill="#a7c6eb" d="M 285.92 69.67 C 285.09 69.71 283.24 69.91 281.79 70.11 C 280.35 70.32 277.88 70.66 276.29 70.89 C 273.31 71.3 269.19 72.16 266.17 73 C 259.52 74.84 257.5 75.43 254.26 76.5 C 252.26 77.15 249.86 77.99 248.95 78.35 C 248.04 78.71 246.53 79.3 245.6 79.66 C 217.76 90.58 187.78 113.88 168.28 139.75 C 158.72 152.43 153.58 161.29 148.97 173 C 145.75 181.18 144.04 186.83 144.43 188.04 C 144.59 188.56 144.73 188.6 148.08 189.12 C 152.46 189.8 155.65 191.36 160.34 195.11 C 166.68 200.19 171.67 207.68 177.41 220.75 C 180.33 227.4 182.22 231.85 183.15 234.25 C 183.66 235.56 184.51 237.65 185.05 238.9 C 185.6 240.16 186.04 241.26 186.04 241.36 C 186.04 241.45 186.47 242.45 187.01 243.58 C 187.53 244.7 188.06 245.9 188.16 246.25 C 188.53 247.44 191.85 254.39 193.11 256.62 C 197.91 265.11 201.77 268.93 207.29 270.66 C 217.47 273.84 226.29 265.93 238.85 242.38 C 241.73 236.97 248.37 223.4 250.41 218.75 C 251.46 216.34 252.48 214.04 252.66 213.62 C 253.58 211.55 255.12 207.81 256.16 205.12 C 257.68 201.22 258.3 199.66 259.55 196.62 C 260.12 195.25 261.31 192.15 262.2 189.75 C 263.08 187.34 264.3 184.08 264.9 182.5 C 267.38 175.98 272.07 161.63 274.9 151.88 C 275.54 149.68 276.22 147.43 276.41 146.88 C 276.75 145.91 277.53 143.1 278.93 137.88 C 279.29 136.5 279.8 134.59 280.07 133.62 C 280.32 132.66 280.82 130.64 281.17 129.12 C 281.52 127.61 282.02 125.47 282.28 124.38 C 282.54 123.27 282.98 121.36 283.26 120.12 C 283.53 118.89 283.99 116.86 284.26 115.62 C 284.92 112.69 285.51 109.64 285.92 107 C 286.11 105.83 286.6 102.9 287.01 100.5 C 287.42 98.09 287.89 94.55 288.05 92.63 C 288.21 90.71 288.39 89.05 288.45 88.94 C 288.72 88.51 289.25 76.1 289.12 73.47 C 288.94 70.09 288.77 69.48 287.99 69.55 C 287.67 69.57 286.74 69.63 285.92 69.67 Z"/>
  </g>
  <g id="wordmark">
    <path fill="#264892" d="M 976.93 69.8 C 976.59 70.3 976.54 72.76 976.54 91.4 C 976.54 102.97 976.47 112.78 976.39 113.2 C 976.16 114.33 975.7 114.34 974.36 113.25 C 967.76 107.83 963.91 105.81 955.42 103.3 C 947.19 100.87 936.28 100.81 926.67 103.14 C 906.71 107.99 889.78 125.13 884.96 145.38 C 882.78 154.55 882.66 162.96 884.59 172 C 886.06 178.89 887.2 181.97 890.75 188.62 C 894.36 195.37 898.9 200.88 904.92 205.79 C 912.54 212.02 920.6 215.5 932.42 217.66 C 935.94 218.31 947.1 218.31 950.42 217.67 C 960.6 215.7 966.39 213.15 973.09 207.68 C 976.49 204.9 976.39 204.82 976.54 210.59 C 976.66 214.92 976.71 215.32 977.17 215.67 C 977.74 216.1 1001.52 215.91 1002.36 215.46 C 1002.99 215.13 1003.04 71.21 1002.41 69.99 L 1002.03 69.25 L 989.67 69.25 L 977.32 69.25 L 976.93 69.8 Z M 949.69 125.36 C 956.37 126.73 961.33 129.31 966.75 134.2 C 971.44 138.45 974.43 143.94 976.33 151.75 C 977.17 155.25 977.18 163.4 976.35 167.25 C 974.11 177.48 968.31 185.35 959.11 190.61 C 951.52 194.96 940.72 195.77 932.24 192.63 C 919.87 188.06 911.65 177.44 909.81 163.62 C 909.05 157.93 910.12 150.6 912.47 145.46 C 914.97 140.01 915.93 138.59 919.53 135 C 921.39 133.14 923.59 131.21 924.42 130.7 C 928.95 127.92 933.2 126.18 937.29 125.41 C 938.46 125.19 939.64 124.97 939.92 124.91 C 941.68 124.55 946.9 124.78 949.69 125.36 Z M 525.48 78.52 C 525.07 78.76 525.04 79.58 525.04 90.07 C 525.04 101.98 524.95 103.08 523.98 103.34 C 523.67 103.43 519.59 103.5 514.92 103.5 C 505.81 103.5 504.66 103.58 504.41 104.22 C 504.03 105.18 504.04 124.09 504.43 124.67 L 504.79 125.23 L 514.53 125.31 C 522.11 125.36 524.34 125.45 524.59 125.7 C 524.86 125.96 524.94 132.17 525.05 157.57 C 525.17 186.56 525.21 189.23 525.61 190.38 C 525.84 191.06 526.04 191.9 526.05 192.25 C 526.06 192.59 526.24 193.33 526.45 193.88 C 526.65 194.42 526.97 195.39 527.15 196.03 C 528.07 199.25 530.47 203.44 533.21 206.61 C 540.12 214.61 554.13 218.91 568.29 217.4 C 575.25 216.65 578.85 215.87 579.16 215.05 C 579.24 214.84 579.19 211.5 579.04 207.64 C 578.61 196.84 578.42 194.03 578.09 193.69 C 577.85 193.46 576.86 193.54 573.6 194.07 C 566.57 195.2 562.91 195.14 559.17 193.85 C 553.8 191.98 552.19 189.19 551.55 180.62 C 551.31 177.43 551.23 127.38 551.46 126.34 C 551.7 125.29 552.24 125.25 565.12 125.25 C 572.43 125.25 577.57 125.15 577.79 125 C 578.33 124.66 578.45 121.81 578.3 112.32 C 578.2 106.19 578.09 104.2 577.84 103.95 C 577.59 103.69 574.83 103.61 564.84 103.56 C 552.3 103.5 552.16 103.49 551.73 102.97 C 551.33 102.49 551.29 101.52 551.29 90.74 C 551.29 80.43 551.25 78.99 550.9 78.64 C 550.43 78.17 526.29 78.05 525.48 78.52 Z M 1286.49 78.56 C 1286.13 78.84 1286.08 80.25 1285.99 90.72 L 1285.88 102.57 L 1285.31 103.03 C 1284.78 103.47 1284.14 103.5 1275.87 103.5 C 1270.68 103.5 1266.82 103.6 1266.56 103.74 C 1266.15 103.96 1266.1 104.6 1265.93 110.62 C 1265.69 119.14 1265.92 124.13 1266.58 124.78 C 1267.01 125.22 1267.59 125.25 1275.78 125.25 C 1281.56 125.25 1284.72 125.34 1285.12 125.52 C 1285.97 125.91 1286.04 128.73 1286.04 159.77 C 1286.04 188.07 1286.08 188.92 1287.67 194.41 C 1288.43 197.05 1290.63 201.72 1292.18 204.02 C 1297.82 212.36 1307.24 216.83 1320.92 217.64 C 1325.16 217.89 1335.76 216.63 1336.62 215.77 C 1336.93 215.46 1337.18 197.47 1336.9 195.3 C 1336.7 193.79 1336.3 193.7 1332.4 194.27 C 1327.17 195.03 1321.88 194.77 1319.18 193.62 C 1315.69 192.13 1313.25 188.7 1312.78 184.62 C 1312.37 181.06 1312.48 126.44 1312.9 125.86 C 1313.24 125.39 1313.74 125.37 1324.75 125.25 C 1331.08 125.18 1336.33 125.05 1336.43 124.95 C 1337.13 124.24 1337.1 104.73 1336.39 104 C 1336.08 103.68 1334.36 103.62 1324.56 103.55 C 1315.93 103.5 1313.02 103.4 1312.83 103.17 C 1312.67 102.98 1312.54 98.4 1312.46 90.89 C 1312.35 79.73 1312.32 78.88 1311.89 78.58 C 1311.26 78.11 1287.09 78.1 1286.49 78.56 Z M 734.92 101.51 C 731.8 101.7 725.29 102.73 723.89 103.26 C 723.53 103.4 722.72 103.62 722.1 103.76 C 719.54 104.34 712.79 107.08 709.92 108.71 C 702.8 112.75 694.85 120.03 691.2 125.88 C 685.47 135.01 684.12 137.89 682.53 144.25 C 682.38 144.87 682.04 146.22 681.77 147.25 C 680.52 152.16 679.81 162.45 680.55 165 C 680.69 165.48 680.92 166.94 681.06 168.25 C 681.2 169.56 681.42 170.96 681.55 171.38 C 681.68 171.79 681.95 172.97 682.14 174 C 683.06 178.9 685.94 186.21 688.34 189.75 C 688.67 190.23 689.26 191.19 689.66 191.88 C 691.72 195.44 696.33 200.74 700.36 204.19 C 715.7 217.31 737.71 221.75 756.17 215.45 C 759.1 214.45 765.34 211.52 765.67 211 C 765.75 210.86 766.24 210.53 766.75 210.27 C 767.25 210.01 768.82 208.89 770.23 207.77 C 773.89 204.88 773.79 204.81 773.8 210.46 C 773.8 214.9 773.88 215.41 774.63 215.66 C 774.93 215.76 780.62 215.83 787.28 215.8 C 797.9 215.77 799.43 215.72 799.78 215.37 C 800.13 215.02 800.17 209.89 800.19 163.68 C 800.2 107.38 800.18 105.39 799.54 104.75 C 798.75 103.96 775.42 103.86 774.35 104.64 C 773.98 104.91 773.91 105.49 773.85 108.79 C 773.74 114.6 773.68 114.69 771.11 112.58 C 766.68 108.94 759.55 105.17 753.75 103.41 C 750.23 102.34 740.61 101.01 738.42 101.29 C 738.28 101.31 736.71 101.41 734.92 101.51 Z M 746.94 125.26 C 765.46 129.06 776.79 145.75 773.92 165 C 772.3 175.89 767.04 184.08 757.94 189.88 C 748.7 195.76 736.07 196.1 725.81 190.74 C 717.91 186.61 711.71 179.59 709.08 171.82 C 706.23 163.42 706.36 153.84 709.42 146.12 C 712.88 137.4 720.8 129.84 729.63 126.81 C 735.46 124.82 741.96 124.24 746.94 125.26 Z M 422.19 101.77 C 416.16 102.46 407.57 105.18 402.19 108.08 C 390.09 114.61 381.37 124.29 375.8 137.38 C 374.91 139.49 373.46 144.13 373.16 145.88 C 373.07 146.43 372.84 147.44 372.66 148.12 C 372.48 148.81 372.25 150.22 372.16 151.25 C 372.07 152.28 371.84 153.89 371.64 154.83 C 371.25 156.75 371.19 162.04 371.55 163.75 C 371.68 164.37 371.9 166 372.04 167.38 C 372.84 175.25 376.43 185.51 380.51 191.6 C 381.15 192.54 381.94 193.72 382.27 194.22 C 384.98 198.31 391.1 204.45 395.17 207.17 C 395.86 207.63 397.04 208.45 397.79 209 C 399.42 210.18 402.62 211.93 405.41 213.17 C 419.81 219.55 437.35 219.93 450.79 214.16 C 455.59 212.11 457.82 210.69 462.42 206.81 C 463.82 205.63 464.78 205.18 464.8 205.69 C 464.81 205.79 464.84 207.98 464.86 210.55 C 464.9 214 465 215.31 465.24 215.55 C 465.64 215.95 489.7 215.89 490.19 215.48 C 490.35 215.35 490.56 214.88 490.64 214.43 C 490.74 213.99 490.81 189.28 490.8 159.52 C 490.79 111.56 490.75 105.34 490.41 104.83 L 490.03 104.25 L 477.67 104.25 C 465.71 104.25 465.3 104.26 465.05 104.73 C 464.91 105 464.79 106.82 464.79 108.84 C 464.79 112.69 464.59 113.75 463.85 113.75 C 463.6 113.75 462.22 112.87 460.78 111.8 C 452.83 105.86 445.83 103.02 436.07 101.77 C 433.69 101.46 424.81 101.46 422.19 101.77 Z M 437.29 125.28 C 446.89 126.91 454.81 132.28 460.32 140.88 C 461.7 143.03 464.04 148.75 464.04 149.97 C 464.04 150.22 464.21 150.91 464.41 151.49 C 465.43 154.37 465.45 164.97 464.44 168.01 C 464.24 168.62 463.83 169.91 463.53 170.88 C 461.45 177.64 457.83 182.89 452.04 187.51 C 447.95 190.78 444.94 192.35 441.04 193.24 C 439.74 193.54 438.27 193.9 437.79 194.05 C 435.86 194.62 428.63 194.6 425.66 194 C 410.54 190.96 400.18 179.66 398.17 164 C 396.69 152.51 401.06 140.25 408.98 133.68 C 411 132 413.97 129.75 414.18 129.75 C 414.27 129.75 415.32 129.2 416.51 128.54 C 422.29 125.29 430.14 124.06 437.29 125.28 Z M 1071.67 101.76 C 1067.94 102.06 1064.19 102.87 1058.29 104.62 C 1051.42 106.67 1042.9 111.83 1036.82 117.62 C 1032.98 121.29 1030.52 124.44 1026.75 130.55 C 1025.32 132.87 1022.45 139.62 1022.15 141.38 C 1022.05 141.93 1021.86 142.6 1021.72 142.87 C 1020.78 144.68 1019.64 151.27 1019.25 157.23 C 1018.94 161.74 1018.98 162.41 1019.91 169.12 C 1020.44 172.94 1021.76 178.3 1022.69 180.41 C 1022.88 180.84 1023.04 181.28 1023.04 181.38 C 1023.04 181.76 1026.13 187.93 1027.59 190.47 C 1032.23 198.53 1041.08 206.98 1049.14 211.05 C 1064.52 218.8 1080.11 220.29 1097.01 215.63 C 1098.8 215.14 1100.79 214.39 1101.96 213.76 C 1102.48 213.48 1103.04 213.25 1103.19 213.25 C 1104.48 213.25 1110.52 209.54 1114.77 206.14 C 1120.48 201.57 1127.54 193.36 1127.54 191.3 C 1127.54 190.83 1126.03 189.5 1125.51 189.5 C 1125.41 189.5 1123.8 188.77 1121.93 187.88 C 1120.05 186.98 1118.47 186.25 1118.41 186.25 C 1118.35 186.25 1116.63 185.42 1114.58 184.4 C 1112.54 183.39 1110.59 182.47 1110.27 182.37 C 1109.93 182.26 1109.09 181.91 1108.37 181.59 C 1106.69 180.82 1106.23 181 1104.58 183.08 C 1097.61 191.84 1085.61 196.51 1074.33 194.86 C 1061.33 192.95 1052.63 186.3 1047.73 174.5 C 1047.53 174.02 1047.17 172.75 1046.93 171.67 C 1046.2 168.37 1040.62 168.75 1090.03 168.75 C 1128.23 168.75 1132.74 168.71 1133.24 168.36 C 1134.06 167.79 1134.08 155.2 1133.28 150.13 C 1132.21 143.42 1131.13 139.33 1129.5 135.82 C 1128.94 134.61 1128.33 133.19 1128.14 132.67 C 1127.96 132.15 1127.56 131.37 1127.26 130.95 C 1126.96 130.53 1126.24 129.25 1125.65 128.12 C 1122.63 122.18 1117.6 116.48 1111.6 112.19 C 1108.26 109.8 1106.29 108.49 1105.74 108.27 C 1105.42 108.15 1103.65 107.32 1101.79 106.43 C 1098.58 104.88 1095.14 103.63 1092.42 103.03 C 1088.67 102.21 1087.46 101.99 1085.42 101.76 C 1082.92 101.47 1075.16 101.47 1071.67 101.76 Z M 1082.32 124.61 C 1091.08 125.93 1098 130.12 1102.88 137.03 C 1105.55 140.82 1107.71 147.7 1106.36 148.09 C 1105.53 148.34 1068.88 148.5 1058.17 148.31 L 1047.42 148.12 L 1047.44 147.12 C 1047.51 143.87 1051.74 136.64 1055.64 133.11 C 1062.56 126.84 1067.64 124.95 1079.32 124.29 C 1079.67 124.27 1081.02 124.41 1082.32 124.61 Z M 1203.12 101.75 C 1194.77 102.92 1187.73 105.63 1182.06 109.88 C 1180.49 111.06 1179.02 111.99 1178.81 111.94 C 1178.39 111.87 1178.13 110.04 1178.07 106.69 C 1178.03 104.06 1178.96 104.22 1164.81 104.31 C 1153.21 104.37 1152.74 104.39 1152.4 104.86 C 1151.81 105.66 1151.87 215.05 1152.46 215.53 C 1152.99 215.98 1177.45 215.94 1177.89 215.5 C 1178.09 215.31 1178.21 205.18 1178.31 180.93 C 1178.47 142.92 1178.37 145.06 1180.13 140.72 C 1182.78 134.21 1187.14 129.45 1192.67 127.06 C 1199.54 124.1 1207.26 124.04 1214.24 126.89 C 1221.37 129.81 1225.88 136.31 1227.57 146.12 C 1228.02 148.73 1228.04 150.58 1228.04 181.78 C 1228.04 213.46 1228.06 214.71 1228.51 215.27 L 1228.97 215.84 L 1241.27 215.81 C 1250.55 215.79 1253.66 215.71 1253.94 215.48 C 1254.26 215.21 1254.3 210.57 1254.23 178.9 C 1254.15 138.69 1254.28 142.02 1252.57 135.36 C 1250.51 127.31 1246.62 120.63 1240.39 114.4 C 1235.28 109.29 1230.68 106.41 1224.67 104.53 C 1223.71 104.22 1222.08 103.7 1221.04 103.37 C 1216.7 101.94 1207.6 101.12 1203.12 101.75 Z M 656.67 101.88 C 656.53 101.92 655.29 102.2 653.92 102.49 C 649.16 103.5 647.91 103.84 645.31 104.8 C 640.63 106.52 637.17 108.64 633.07 112.28 C 631.22 113.94 630.43 114.49 630.24 114.29 C 629.8 113.86 629.55 111.31 629.71 109.1 C 629.88 106.89 629.37 104.68 628.63 104.4 C 628.43 104.31 622.81 104.25 616.15 104.25 L 604.06 104.25 L 603.67 104.83 C 603.1 105.71 603.22 214.79 603.79 215.34 C 604.1 215.63 606.33 215.71 616.35 215.83 C 627.93 215.96 628.55 215.95 629.1 215.51 C 629.78 214.95 629.78 215.03 629.81 177.12 L 629.83 153.12 L 630.45 150 C 632.54 139.41 636.7 133.35 644.92 128.87 C 651.16 125.46 657.33 124.86 666.67 126.73 C 671.23 127.64 671.02 127.75 671.31 124.21 C 671.42 122.79 671.75 119.32 672.03 116.5 C 673.24 104.48 673.24 104.22 671.99 103.4 C 670.45 102.39 658.62 101.21 656.67 101.88 Z"/>
    <circle fill="#dc421e" cx="841.62" cy="195.4" r="21.8"/>
  </g>
</svg>
